<svg width="34" height="45" viewBox="0 0 34 45" fill="none" xmlns="http://www.w3.org/2000/svg">
<path d="M29.75 8.4375H4.25C3.68641 8.4375 3.14591 8.73382 2.7474 9.26126C2.34888 9.78871 2.125 10.5041 2.125 11.25V33.75C2.125 34.4959 2.34888 35.2113 2.7474 35.7387C3.14591 36.2662 3.68641 36.5625 4.25 36.5625H29.75C30.3136 36.5625 30.8541 36.2662 31.2526 35.7387C31.6511 35.2113 31.875 34.4959 31.875 33.75V11.25C31.875 10.5041 31.6511 9.78871 31.2526 9.26126C30.8541 8.73382 30.3136 8.4375 29.75 8.4375ZM27.4125 11.25L17 20.7844L6.5875 11.25H27.4125ZM4.25 33.75V12.5297L16.3944 23.6531C16.5722 23.8164 16.7835 23.9039 17 23.9039C17.2165 23.9039 17.4278 23.8164 17.6056 23.6531L29.75 12.5297V33.75H4.25Z" fill="white"/>
</svg>
