<svg width="25" height="25" viewBox="0 0 25 25" fill="none" xmlns="http://www.w3.org/2000/svg">
<path d="M21.1111 12.2224C19.8611 10.9029 18.1945 10.0002 16.4583 9.65295C15.6945 9.44461 14.9306 9.30573 14.1667 9.23628C16.1111 6.94461 15.7639 3.47239 13.4722 1.52795C11.1806 -0.416496 7.70834 -0.0692737 5.76389 2.22239C3.81945 4.51406 4.16667 7.98628 6.45834 9.93073C6.87501 10.2779 7.29167 10.5557 7.70834 10.6946V12.2224L6.59723 11.1807C5.62501 10.2085 4.02778 10.2085 2.98612 11.1807C2.01389 12.1529 1.94445 13.6807 2.91667 14.6529L6.11112 18.4029C6.25001 19.3752 6.59723 20.2779 7.08334 21.1113C7.43056 21.7363 7.91667 22.3613 8.40278 22.8474V24.1668C8.40278 24.5835 8.68056 24.8613 9.09723 24.8613H18.5417C18.8889 24.8613 19.2361 24.5141 19.2361 24.1668V22.3613C20.5556 20.7641 21.25 18.7502 21.25 16.7363V12.7085C21.3195 12.4307 21.25 12.2918 21.1111 12.2224ZM5.83334 5.69461C5.83334 3.40295 7.70834 1.59739 10 1.66684C12.2917 1.66684 14.0972 3.54184 14.0278 5.8335C14.0278 7.0835 13.4722 8.19461 12.5 8.9585V5.48628C12.4645 4.88446 12.2002 4.31899 11.7612 3.90581C11.3222 3.49262 10.7418 3.26302 10.1389 3.26406C8.8889 3.19461 7.77778 4.23628 7.77778 5.48628V9.09739C6.59723 8.40295 5.90278 7.0835 5.83334 5.69461ZM19.9306 16.6668C20 18.4724 19.375 20.2085 18.1945 21.5974C18.0556 21.7363 17.9167 21.8752 17.9167 22.0835V23.5418H9.86112V22.5696C9.86112 22.3613 9.72223 22.1529 9.58334 22.0141C9.09723 21.5974 8.68056 21.1113 8.33334 20.4863C7.91667 19.7918 7.6389 18.9585 7.50001 18.1252C7.50001 17.9863 7.43056 17.8474 7.36112 17.7085L4.02778 13.7502C3.81945 13.5418 3.68056 13.2641 3.68056 12.9168C3.68056 12.6391 3.81945 12.2918 4.02778 12.0835C4.51389 11.6668 5.20834 11.6668 5.69445 12.0835L7.70834 14.0974V16.1807L9.02778 15.4863V5.48628C9.09723 5.00017 9.5139 4.5835 10.0695 4.65295C10.5556 4.65295 11.0417 5.00017 11.0417 5.48628V13.4724L12.4306 13.7502V10.5557C12.5 10.4863 12.5695 10.4863 12.6389 10.4168C13.125 10.4168 13.6111 10.4863 14.0972 10.5557V14.0974L15.2083 14.3057V10.6946L16.0417 10.9029C16.3889 10.9724 16.7361 11.1113 17.0833 11.2502V14.7224L18.1945 14.9307V11.7363C18.8195 12.0141 19.375 12.4307 19.8611 12.9168L19.9306 16.6668Z" fill="white"/>
</svg>
