<svg width="34" height="34" viewBox="0 0 34 34" fill="none" xmlns="http://www.w3.org/2000/svg">
<path d="M17 11.3335C15.4971 11.3335 14.0558 11.9305 12.9931 12.9932C11.9304 14.0559 11.3333 15.4973 11.3333 17.0002C11.3333 18.5031 11.9304 19.9444 12.9931 21.0071C14.0558 22.0698 15.4971 22.6668 17 22.6668C18.5029 22.6668 19.9442 22.0698 21.0069 21.0071C22.0696 19.9444 22.6667 18.5031 22.6667 17.0002C22.6667 15.4973 22.0696 14.0559 21.0069 12.9932C19.9442 11.9305 18.5029 11.3335 17 11.3335Z" fill="white"/>
<path fill-rule="evenodd" clip-rule="evenodd" d="M10.2 0C7.49479 0 4.90038 1.07464 2.98751 2.98751C1.07464 4.90038 0 7.49479 0 10.2L0 23.8C0 26.5052 1.07464 29.0996 2.98751 31.0125C4.90038 32.9254 7.49479 34 10.2 34H23.8C26.5052 34 29.0996 32.9254 31.0125 31.0125C32.9254 29.0996 34 26.5052 34 23.8V10.2C34 7.49479 32.9254 4.90038 31.0125 2.98751C29.0996 1.07464 26.5052 0 23.8 0L10.2 0ZM9.06667 17C9.06667 14.8959 9.9025 12.8781 11.3903 11.3903C12.8781 9.9025 14.8959 9.06667 17 9.06667C19.1041 9.06667 21.1219 9.9025 22.6097 11.3903C24.0975 12.8781 24.9333 14.8959 24.9333 17C24.9333 19.1041 24.0975 21.1219 22.6097 22.6097C21.1219 24.0975 19.1041 24.9333 17 24.9333C14.8959 24.9333 12.8781 24.0975 11.3903 22.6097C9.9025 21.1219 9.06667 19.1041 9.06667 17ZM24.9333 9.06667H27.2V6.8H24.9333V9.06667Z" fill="white"/>
</svg>
