<svg width="26" height="30" viewBox="0 0 26 30" fill="none" xmlns="http://www.w3.org/2000/svg">
<path d="M16.5 22.1125C11.2611 22.1125 7 17.1533 7 11.0572C7 4.9602 11.2619 0 16.5 0C21.7381 0 26 4.9602 26 11.0572C26 17.1533 21.7381 22.1125 16.5 22.1125ZM16.5 0.79711C11.6387 0.79711 7.68424 5.40042 7.68424 11.0581C7.68424 16.7148 11.6387 21.3172 16.5 21.3172C21.3613 21.3172 25.3158 16.7148 25.3158 11.0581C25.3158 5.40042 21.3613 0.79711 16.5 0.79711Z" fill="black"/>
<path d="M23.6587 11.6382C23.568 11.6382 23.481 11.5963 23.4169 11.5216C23.3527 11.447 23.3167 11.3458 23.3167 11.2402C23.3167 6.76493 20.1877 3.12356 16.342 3.12356C16.2513 3.12356 16.1643 3.08164 16.1002 3.007C16.036 2.93237 16 2.83115 16 2.7256C16 2.62005 16.036 2.51883 16.1002 2.4442C16.1643 2.36956 16.2513 2.32764 16.342 2.32764C20.5648 2.32764 24 6.32537 24 11.2393C24.0002 11.2916 23.9915 11.3434 23.9745 11.3918C23.9574 11.4402 23.9323 11.4842 23.9006 11.5212C23.8689 11.5583 23.8312 11.5877 23.7897 11.6078C23.7482 11.6279 23.7037 11.6382 23.6587 11.6382Z" fill="black"/>
<path d="M0.345275 29.0954C0.275136 29.0952 0.206707 29.0722 0.149051 29.0293C0.0913949 28.9865 0.0472308 28.9259 0.0224071 28.8556C-0.00241667 28.7852 -0.00672906 28.7085 0.0100412 28.6354C0.0268115 28.5624 0.0638733 28.4965 0.116319 28.4466L10.4359 18.7038C10.5052 18.6436 10.5936 18.6144 10.6826 18.6223C10.7715 18.6303 10.8542 18.6748 10.9133 18.7465C10.9724 18.8183 11.0033 18.9117 10.9997 19.0074C10.9961 19.103 10.9581 19.1935 10.8938 19.2598L0.573444 29.0026C0.510567 29.0625 0.429368 29.0955 0.345275 29.0954Z" fill="black"/>
</svg>
