<svg width="40" height="40" viewBox="0 0 40 40" fill="none" xmlns="http://www.w3.org/2000/svg">
<path d="M20 3.75C17.1776 3.75076 14.4039 4.48645 11.9521 5.88466C9.50036 7.28287 7.4549 9.29542 6.01711 11.7242C4.57932 14.153 3.79874 16.9143 3.75221 19.7364C3.70568 22.5585 4.39479 25.344 5.75173 27.8189L4.41642 32.4931C4.29395 32.9218 4.28834 33.3754 4.40017 33.807C4.51199 34.2386 4.73719 34.6324 5.05243 34.9476C5.36766 35.2629 5.76147 35.4881 6.19303 35.5999C6.62459 35.7118 7.07821 35.7062 7.50689 35.5837L12.1813 34.2483C14.3535 35.4402 16.7695 36.1197 19.2446 36.2347C21.7197 36.3497 24.1883 35.8972 26.4617 34.9118C28.7351 33.9265 30.7531 32.4343 32.3613 30.5495C33.9696 28.6646 35.1256 26.437 35.7409 24.0368C36.3562 21.6367 36.4146 19.1276 35.9115 16.7015C35.4084 14.2753 34.3572 11.9964 32.8383 10.0388C31.3194 8.08119 29.373 6.49684 27.1478 5.40687C24.9227 4.3169 22.4778 3.75017 20 3.75V3.75ZM23.7695 30C23.7649 30.0036 23.7564 30 23.7499 30C21.9426 30 20.153 29.6437 18.4835 28.9514C16.8141 28.2592 15.2974 27.2447 14.0204 25.9658C12.7433 24.687 11.7309 23.1689 11.0411 21.4984C10.3512 19.828 9.99747 18.0379 10 16.2306C10.0057 14.7423 10.6008 13.3169 11.655 12.2663C12.7092 11.2157 14.1367 10.6256 15.625 10.625C16.0351 10.6255 16.4378 10.7342 16.7925 10.94C17.1472 11.1458 17.4414 11.4416 17.6453 11.7973L19.4722 14.9942C19.6923 15.3799 19.8057 15.8171 19.801 16.2611C19.7963 16.7051 19.6735 17.1399 19.4453 17.5208L18.3342 19.3727C18.8837 20.3254 19.6747 21.1164 20.6274 21.6659L22.4791 20.5548C22.86 20.3266 23.2947 20.2039 23.7387 20.1991C24.1827 20.1944 24.62 20.3078 25.0056 20.5278L28.2025 22.3545C28.5584 22.5584 28.8542 22.8526 29.06 23.2074C29.2659 23.5621 29.3745 23.9649 29.375 24.375C29.3744 25.8633 28.7843 27.2907 27.7338 28.3449C26.6832 29.3992 25.2578 29.9943 23.7695 30V30Z" fill="white"/>
<path d="M21.3203 24.1659C21.1475 24.2697 20.9521 24.3301 20.7508 24.3419C20.5495 24.3538 20.3484 24.3168 20.1645 24.234C18.2095 23.3557 16.6446 21.7908 15.7663 19.8357C15.6836 19.6519 15.6466 19.4507 15.6585 19.2495C15.6704 19.0482 15.7308 18.8528 15.8345 18.68L17.3014 16.2348L15.5255 13.1268C14.717 13.1522 13.9498 13.4902 13.3855 14.0698C12.8212 14.6494 12.5038 15.4253 12.5 16.2342C12.4979 17.7129 12.7873 19.1775 13.3517 20.5443C13.9162 21.9111 14.7445 23.1532 15.7894 24.1995C16.8342 25.2459 18.0751 26.076 19.4411 26.6424C20.8071 27.2088 22.2713 27.5003 23.75 27.5003H23.7661C24.575 27.4965 25.3509 27.1791 25.9305 26.6148C26.51 26.0505 26.8481 25.2833 26.8735 24.4748L23.7656 22.6987L21.3203 24.1659Z" fill="white"/>
</svg>
